<svg xmlns="http://www.w3.org/2000/svg" viewBox="0 0 2994 754"><filter id="b"><feGaussianBlur stdDeviation="44" /></filter><rect x="0" y="0" width="2994" height="754" fill="#7b8984" /><g filter="url(#b)" transform="scale(1.000000) translate(0.5 0.5)"><ellipse fill="#001f28" fill-opacity="0.501961" cx="1478" cy="753" rx="706" ry="1271" /><ellipse fill="#ffffe1" fill-opacity="0.501961" cx="2632" cy="347" rx="320" ry="2651" /><g transform="translate(543.717509 446.678541) rotate(273.055492) scale(745.886169 117.197222)"><ellipse fill="#fffff7" fill-opacity="0.501961" cx="0" cy="0" rx="1" ry="1" /></g><ellipse fill="#fffffc" fill-opacity="0.501961" cx="33" cy="381" rx="319" ry="319" /><g transform="translate(824.049603 313.336818) rotate(188.707803) scale(138.170420 61.661319)"><ellipse fill="#ffffff" fill-opacity="0.501961" cx="0" cy="0" rx="1" ry="1" /></g><polygon fill="#fffee9" fill-opacity="0.501961" points="-12,-3 667,-5 657,251" /><g transform="translate(2182 288) rotate(3) scale(202 74)"><rect fill="#ffffff" fill-opacity="0.501961" x="-0.5" y="-0.5" width="1" height="1" /></g><g transform="translate(1372.168430 134.227496) rotate(87.119624) scale(253.836160 52.910708)"><ellipse fill="#72dcce" fill-opacity="0.501961" cx="0" cy="0" rx="1" ry="1" /></g></g></svg>