<svg xmlns="http://www.w3.org/2000/svg" viewBox="0 0 5000 1358"><filter id="b"><feGaussianBlur stdDeviation="44" /></filter><rect x="0" y="0" width="5000" height="1358" fill="#a7918d" /><g filter="url(#b)" transform="scale(1.000000) translate(0.5 0.5)"><ellipse fill="#ffffff" fill-opacity="0.501961" cx="2691" cy="327" rx="532" ry="532" /><g transform="translate(112.109415 396.588868) rotate(286.299046) scale(533.151018 322.969669)"><ellipse fill="#000000" fill-opacity="0.501961" cx="0" cy="0" rx="1" ry="1" /></g><g transform="translate(3786.509764 399.673092) rotate(473.214643) scale(628.174116 454.676389)"><ellipse fill="#36160b" fill-opacity="0.501961" cx="0" cy="0" rx="1" ry="1" /></g><g transform="translate(993.182891 1210.475679) rotate(167.181461) scale(435.982752 251.498537)"><ellipse fill="#040000" fill-opacity="0.501961" cx="0" cy="0" rx="1" ry="1" /></g><g transform="translate(4453.843946 657.850437) rotate(217.672132) scale(256.201526 744.911673)"><ellipse fill="#f6f1f9" fill-opacity="0.501961" cx="0" cy="0" rx="1" ry="1" /></g><g transform="translate(2167.419760 1241.076450) rotate(281.858563) scale(263.203156 544.411694)"><ellipse fill="#ecf7ff" fill-opacity="0.501961" cx="0" cy="0" rx="1" ry="1" /></g><g transform="translate(3147.424799 864.862173) rotate(106.906225) scale(201.438192 329.886362)"><ellipse fill="#ffffff" fill-opacity="0.501961" cx="0" cy="0" rx="1" ry="1" /></g><ellipse fill="#603217" fill-opacity="0.501961" cx="1532" cy="216" rx="331" ry="189" /></g></svg>