<svg xmlns="http://www.w3.org/2000/svg" viewBox="0 0 3264 1161"><filter id="b"><feGaussianBlur stdDeviation="44" /></filter><rect x="0" y="0" width="3264" height="1161" fill="#4a494b" /><g filter="url(#b)" transform="scale(1.000000) translate(0.5 0.5)"><ellipse fill="#ffffff" fill-opacity="0.501961" cx="934" cy="716" rx="392" ry="392" /><g transform="translate(2111.894431 610.379657) rotate(162.134130) scale(377.782613 93.007882)"><ellipse fill="#ffffff" fill-opacity="0.501961" cx="0" cy="0" rx="1" ry="1" /></g><g transform="translate(2769.048460 676.013967) rotate(191.139777) scale(296.014435 154.456389)"><ellipse fill="#ffffff" fill-opacity="0.501961" cx="0" cy="0" rx="1" ry="1" /></g><g transform="translate(2713.090543 1160.000000) rotate(186.145371) scale(207.628304 132.691018)"><ellipse fill="#ffffff" fill-opacity="0.501961" cx="0" cy="0" rx="1" ry="1" /></g><g transform="translate(2569.619236 698.891093) rotate(515.863444) scale(342.654713 50.500347)"><ellipse fill="#ffffff" fill-opacity="0.501961" cx="0" cy="0" rx="1" ry="1" /></g><ellipse fill="#000000" fill-opacity="0.501961" cx="211" cy="833" rx="405" ry="405" /><g transform="translate(2455.845951 239.492647) rotate(73.690112) scale(31.200500 236.733511)"><ellipse fill="#ffffff" fill-opacity="0.501961" cx="0" cy="0" rx="1" ry="1" /></g><g transform="translate(2931.542785 703.522588) rotate(11.779175) scale(78.579215 337.583857)"><ellipse fill="#ffffff" fill-opacity="0.501961" cx="0" cy="0" rx="1" ry="1" /></g></g></svg>