<svg xmlns="http://www.w3.org/2000/svg" viewBox="0 0 1000 300"><filter id="b"><feGaussianBlur stdDeviation="44" /></filter><rect x="0" y="0" width="1000" height="300" fill="#52644f" /><g filter="url(#b)" transform="scale(1.000000) translate(0.5 0.5)"><ellipse fill="#a1beff" fill-opacity="0.501961" cx="379" cy="16" rx="643" ry="74" /><polygon fill="#000000" fill-opacity="0.501961" points="84,55 645,192 -16,313" /><g transform="translate(440.594736 94.068051) rotate(283.914701) scale(46.880428 73.983867)"><ellipse fill="#d7ddff" fill-opacity="0.501961" cx="0" cy="0" rx="1" ry="1" /></g><g transform="translate(725.274346 121.892068) rotate(-15.151574) scale(212.897747 50.354059)"><ellipse fill="#222900" fill-opacity="0.501961" cx="0" cy="0" rx="1" ry="1" /></g><ellipse fill="#041309" fill-opacity="0.501961" cx="36" cy="164" rx="356" ry="74" /><g transform="translate(135.855471 0.000000) rotate(249.567428) scale(51.232482 224.301483)"><ellipse fill="#80e1ff" fill-opacity="0.501961" cx="0" cy="0" rx="1" ry="1" /></g><g transform="translate(729.991201 259.722261) rotate(79.412763) scale(97.378185 642.598104)"><ellipse fill="#718d00" fill-opacity="0.501961" cx="0" cy="0" rx="1" ry="1" /></g><polygon fill="#ffffff" fill-opacity="0.501961" points="546,-16 704,71 646,92" /></g></svg>