<svg xmlns="http://www.w3.org/2000/svg" viewBox="0 0 1000 300"><filter id="b"><feGaussianBlur stdDeviation="44" /></filter><rect x="0" y="0" width="1000" height="300" fill="#afb4b3" /><g filter="url(#b)" transform="scale(1.000000) translate(0.5 0.5)"><g transform="translate(441.776465 262.334249) rotate(-0.468214) scale(701.448392 41.342146)"><ellipse fill="#0d2b00" fill-opacity="0.501961" cx="0" cy="0" rx="1" ry="1" /></g><g transform="translate(337.460078 153.687365) rotate(278.445316) scale(110.482569 53.146116)"><ellipse fill="#13061a" fill-opacity="0.501961" cx="0" cy="0" rx="1" ry="1" /></g><polygon fill="#ffffff" fill-opacity="0.501961" points="239,0 1015,-16 1007,190" /><g transform="translate(125.599065 92.197510) rotate(6.525400) scale(169.493974 140.136388)"><ellipse fill="#ffffff" fill-opacity="0.501961" cx="0" cy="0" rx="1" ry="1" /></g><g transform="translate(525.505230 160.530402) rotate(82.604812) scale(75.533813 140.746504)"><ellipse fill="#ffffff" fill-opacity="0.501961" cx="0" cy="0" rx="1" ry="1" /></g><ellipse fill="#465365" fill-opacity="0.501961" cx="767" cy="196" rx="95" ry="95" /><g transform="translate(120 220) rotate(71) scale(86 53)"><rect fill="#35453b" fill-opacity="0.501961" x="-0.5" y="-0.5" width="1" height="1" /></g><ellipse fill="#fcf9ff" fill-opacity="0.501961" cx="953" cy="121" rx="98" ry="98" /></g></svg>