<svg xmlns="http://www.w3.org/2000/svg" viewBox="0 0 2048 578"><filter id="b"><feGaussianBlur stdDeviation="44" /></filter><rect x="0" y="0" width="2048" height="578" fill="#abb5cb" /><g filter="url(#b)" transform="scale(1.000000) translate(0.5 0.5)"><g transform="translate(251 176) rotate(512) scale(789 478)"><rect fill="#000019" fill-opacity="0.501961" x="-0.5" y="-0.5" width="1" height="1" /></g><g transform="translate(549.789916 512.493816) rotate(-121.233854) scale(188.194437 577.283886)"><ellipse fill="#ffffff" fill-opacity="0.501961" cx="0" cy="0" rx="1" ry="1" /></g><g transform="translate(164.030570 326.992781) rotate(2.807363) scale(208.759601 138.178161)"><ellipse fill="#000001" fill-opacity="0.501961" cx="0" cy="0" rx="1" ry="1" /></g><g transform="translate(1435.917794 553.571075) rotate(157.503951) scale(141.117627 32.548369)"><ellipse fill="#00001b" fill-opacity="0.501961" cx="0" cy="0" rx="1" ry="1" /></g><g transform="translate(1732.194519 192.169924) rotate(222.419477) scale(607.809654 353.920249)"><ellipse fill="#ffffff" fill-opacity="0.501961" cx="0" cy="0" rx="1" ry="1" /></g><polygon fill="#6587bb" fill-opacity="0.501961" points="1058,-16 620,284 -16,1" /><g transform="translate(1120.503899 87.380033) rotate(75.095381) scale(27.625952 73.630914)"><ellipse fill="#0043a3" fill-opacity="0.501961" cx="0" cy="0" rx="1" ry="1" /></g><ellipse fill="#edf5ff" fill-opacity="0.501961" cx="1453" cy="240" rx="166" ry="276" /></g></svg>